<svg width="40" height="40" xmlns="http://www.w3.org/2000/svg">
    <path d="M16.517 37.648C13.37 37 10.434 35.553 8.13 33.516 2.21 28.286.38 20.07 3.508 12.759c.768-1.795 2.016-3.617 3.562-5.2l1.364-1.396.096 8.168c.092 7.818.113 8.212.484 9.197.744 1.971 1.541 3.226 2.913 4.586 3.545 3.512 8.744 4.389 13.164 2.22 4.155-2.04 6.774-6.475 6.47-10.954-.205-3.009-1.222-5.215-3.417-7.413-1.66-1.663-3.614-2.748-5.74-3.191-2.164-.45-2.06-.516-2.06 1.306v1.573l1.186.217c4.594.843 7.632 5.331 6.674 9.86-.306 1.447-.988 2.725-2.083 3.902-1.663 1.788-4.005 2.643-6.049 2.639-3.38-.007-6.202-1.918-7.57-4.744 0 0-.358-.808-.473-1.307-.678-2.936-.245-9.116-.245-9.116l-.052-9.036.536-.276c.295-.151.578-.275.628-.275.051 0 .116 4.15.144 9.222 0 0-.651 6.65.153 9.198.116.368.336.996.336.996.706 1.43 1.836 2.688 3.305 3.38 1.114.525 1.676.763 3.325.763 1.077 0 2.032-.338 3.13-.841 1.295-.593 2.78-2.164 3.33-3.598 1.512-3.953-.594-8.205-4.65-9.39-1.659-.485-1.625-.512-1.625 1.282v1.567l.796.212c2.869.763 3.744 4.59 1.492 6.556-.796.694-1.513 1.001-2.767 1.001-1.34 0-2.626-.807-3.288-2.045a3.76 3.76 0 01-.43-1.772c0-2.984-.065-8.351-.065-8.351l-.054-9.207.412-.101c.226-.056 1.142-.195 2.034-.308 3.027-.385 7.505.601 10.514 2.314 4.101 2.335 7.205 6.346 8.497 10.983.444 1.594.494 2.058.494 4.624 0 2.554-.05 3.033-.486 4.593-1.757 6.301-6.228 10.806-12.62 12.717-1.346.402-1.976.478-4.35.529-1.915.04-3.157-.02-4.006-.195z"
          fill="#C60C30" fill-rule="nonzero"/>
</svg>