<svg width="16" height="16" viewBox="0 0 16 16" fill="none" xmlns="http://www.w3.org/2000/svg">
    <g clip-path="url(#clip0_1_2)">
        <path d="M6.6068 15.0592C5.348 14.8 4.1736 14.2212 3.252 13.4064C0.884002 11.3144 0.152002 8.028 1.4032 5.1036C1.7104 4.3856 2.2096 3.6568 2.828 3.0236L3.3736 2.4652L3.412 5.7324C3.4488 8.8596 3.4572 9.0172 3.6056 9.4112C3.9032 10.1996 4.222 10.7016 4.7708 11.2456C6.1888 12.6504 8.2684 13.0012 10.0364 12.1336C11.6984 11.3176 12.746 9.5436 12.6244 7.752C12.5424 6.5484 12.1356 5.666 11.2576 4.7868C10.5936 4.1216 9.812 3.6876 8.9616 3.5104C8.096 3.3304 8.1376 3.304 8.1376 4.0328V4.662L8.612 4.7488C10.4496 5.086 11.6648 6.8812 11.2816 8.6928C11.1592 9.2716 10.8864 9.7828 10.4484 10.2536C9.7832 10.9688 8.8464 11.3108 8.0288 11.3092C6.6768 11.3064 5.548 10.542 5.0008 9.4116C5.0008 9.4116 4.8576 9.0884 4.8116 8.8888C4.5404 7.7144 4.7136 5.2424 4.7136 5.2424L4.6928 1.628L4.9072 1.5176C5.0252 1.4572 5.1384 1.4076 5.1584 1.4076C5.1788 1.4076 5.2048 3.0676 5.216 5.0964C5.216 5.0964 4.9556 7.7564 5.2772 8.7756C5.3236 8.9228 5.4116 9.174 5.4116 9.174C5.694 9.746 6.146 10.2492 6.7336 10.526C7.1792 10.736 7.404 10.8312 8.0636 10.8312C8.4944 10.8312 8.8764 10.696 9.3156 10.4948C9.8336 10.2576 10.4276 9.6292 10.6476 9.0556C11.2524 7.4744 10.41 5.7736 8.7876 5.2996C8.124 5.1056 8.1376 5.0948 8.1376 5.8124V6.4392L8.456 6.524C9.6036 6.8292 9.9536 8.36 9.0528 9.1464C8.7344 9.424 8.4476 9.5468 7.946 9.5468C7.41 9.5468 6.8956 9.224 6.6308 8.7288C6.51618 8.51023 6.45711 8.2668 6.4588 8.02C6.4588 6.8264 6.4328 4.6796 6.4328 4.6796L6.4112 0.996804L6.576 0.956404C6.6664 0.934004 7.0328 0.878404 7.3896 0.833204C8.6004 0.679204 10.3916 1.0736 11.5952 1.7588C13.2356 2.6928 14.4772 4.2972 14.994 6.152C15.1716 6.7896 15.1916 6.9752 15.1916 8.0016C15.1916 9.0232 15.1716 9.2148 14.9972 9.8388C14.2944 12.3592 12.506 14.1612 9.9492 14.9256C9.4108 15.0864 9.1588 15.1168 8.2092 15.1372C7.4432 15.1532 6.9464 15.1292 6.6068 15.0592Z"
              fill="#C60C30"/>
    </g>
    <defs>
        <clipPath id="clip0_1_2">
            <rect width="16" height="16" fill="white"/>
        </clipPath>
    </defs>
</svg>
